<svg id="Capa_1" enable-background="new 0 0 512 512" height="512" viewBox="0 0 512 512" width="512" xmlns="http://www.w3.org/2000/svg"><g><g><path d="m299.314 201.324h-86.627l-76.44-121.891c-8.585-17.813-2.839-39.191 13.539-50.369 56.776-38.751 155.652-38.751 212.428 0 16.378 11.178 22.124 32.556 13.539 50.369z" fill="#fff59b"/></g><g><path d="m296.323 191.324h-13.716l7.231-28.785c1.346-5.356-1.905-10.79-7.262-12.135-5.357-1.346-10.789 1.906-12.135 7.262l-8.455 33.658h-10.757l-9.601-43.736c-1.184-5.394-6.513-8.807-11.912-7.623-5.395 1.184-8.807 6.518-7.623 11.912l8.66 39.448h-15.076c-5.522 0-10 4.477-10 10v260.58c0 27.622 22.575 50.095 50.323 50.095s50.323-22.473 50.323-50.097v-260.58c0-5.522-4.477-9.999-10-9.999zm-70.646 20h60.646v49.385h-60.646zm60.646 250.579c0 16.596-13.602 30.097-30.323 30.097s-30.323-13.501-30.323-30.097v-181.194h60.646z" fill="#020288"/></g></g></svg>