<svg id="Capa_1" enable-background="new 0 0 512 512" height="512" viewBox="0 0 512 512" width="512" xmlns="http://www.w3.org/2000/svg"><g><g><path d="m189.159 192.872h133.681v264.511h-133.681z" fill="#ffbdbc"/></g><g fill="#020288"><path d="m371.996 159.58-59.536-59.535v-39.043c15.666-1.292 28.019-14.455 28.019-30.449-.001-16.847-13.707-30.553-30.553-30.553h-107.852c-16.847 0-30.553 13.706-30.553 30.553 0 15.994 12.353 29.157 28.019 30.449v39.043l-59.536 59.535c-1.875 1.876-2.929 4.419-2.929 7.071v314.436c0 17.046 13.867 30.913 30.913 30.913h176.023c17.046 0 30.913-13.867 30.913-30.913v-314.436c.001-2.652-1.053-5.195-2.928-7.071zm-152.456-98.474h72.92v33.078h-72.92zm-28.019-30.553c0-5.818 4.734-10.553 10.553-10.553h107.852c5.818 0 10.553 4.734 10.553 10.553s-4.734 10.554-10.553 10.554h-107.852c-5.819-.001-10.553-4.735-10.553-10.554zm163.404 450.534c0 6.018-4.896 10.913-10.913 10.913h-176.024c-6.017 0-10.913-4.896-10.913-10.913v-310.293l56.609-56.609h84.629l56.61 56.609v310.293z"/><path d="m256 277.476c-3.066 0-5.963 1.407-7.859 3.817-6.759 8.592-28.811 37.935-28.811 54.816 0 20.221 16.451 36.671 36.671 36.671 20.221 0 36.671-16.45 36.671-36.671 0-16.881-22.053-46.225-28.811-54.816-1.897-2.41-4.795-3.817-7.861-3.817zm0 75.304c-9.192 0-16.671-7.479-16.671-16.671 0-5.232 7.682-18.903 16.673-31.814 8.989 12.901 16.668 26.568 16.668 31.814.001 9.193-7.478 16.671-16.67 16.671z"/></g></g></svg>