<svg id="Capa_1" enable-background="new 0 0 512 512" height="512" viewBox="0 0 512 512" width="512" xmlns="http://www.w3.org/2000/svg"><g><g><path d="m359.556 237.17c0-5.67 3.027-10.91 7.941-13.747l9.378-5.415c1.145-6.848 1.742-13.882 1.742-21.055 0-70.063-56.863-126.86-127.007-126.86s-127.006 56.797-127.006 126.86 56.863 126.86 127.006 126.86c45.572 0 85.537-23.974 107.946-59.984z" fill="#b2f0fb"/></g><g><path d="m447.559 316.728h-.233v-95.739c.965-7.918 1.454-16.004 1.454-24.036-.001-108.6-88.45-196.953-197.17-196.953s-197.169 88.353-197.169 196.953c0 96.613 70.002 177.201 162.001 193.815v101.232h-89.716c-5.522 0-10 4.477-10 10s4.478 10 10 10h320.832c5.522 0 10-4.477 10-10v-175.272c.001-5.523-4.477-10-9.999-10zm-108.236 56.656v118.616h-52.544v-101.238c18.241-3.29 35.934-9.133 52.544-17.378zm88.002-56.656h-57.77v-79.558c0-2.09 1.127-4.04 2.941-5.087l45.976-26.546c2.667-1.54 5.022-.514 5.911 0 .884.511 2.941 2.028 2.941 5.087v106.104zm-352.884-119.775c0-97.572 79.478-176.953 177.169-176.953 93.902 0 170.975 73.342 176.813 165.684-6.633-1.892-13.752-1.048-19.951 2.532l-45.976 26.546c-7.983 4.609-12.941 13.195-12.941 22.408v79.558h-.232c-5.522 0-10 4.477-10 10v24.007c-26.619 15.173-56.846 23.172-87.713 23.172-97.691-.001-177.169-79.382-177.169-176.954zm162.001 196.376c5.007.382 10.065.577 15.168.577 5.075 0 10.135-.194 15.169-.58v98.674h-30.337zm201.117 98.671h-78.235v-155.272h78.235z" fill="#020288"/></g></g></svg>