<svg id="Capa_1" enable-background="new 0 0 512 512" height="512" viewBox="0 0 512 512" width="512" xmlns="http://www.w3.org/2000/svg"><g><g><ellipse cx="256" cy="240.009" fill="#ffbdbc" rx="68.288" ry="136.855"/></g><g fill="#020288"><path d="m348.572 7.242c-1.231-4.287-5.152-7.242-9.613-7.242h-165.92c-4.461 0-8.382 2.955-9.612 7.242-13.552 47.239-36.487 151.641-36.487 243.296 0 100.479 16.106 151.237 21.399 167.916.534 1.684 23.02 86.114 23.02 86.114 1.164 4.382 5.131 7.432 9.664 7.432h149.954c4.534 0 8.5-3.05 9.664-7.432 0 0 22.76-85.83 23.629-88.805 5.686-19.458 20.791-71.146 20.791-165.225 0-91.664-22.937-196.061-36.489-243.296zm-120.359 484.758v-20.34h55.574v20.34zm95.074 0h-19.5v-30.34c0-5.523-4.477-10-10-10h-75.574c-5.523 0-10 4.477-10 10v30.34h-19.5l-16.304-61.364h167.182zm21.786-81.847c-.047.163-.095.324-.141.482h-178.091c-5.546-17.591-19.902-66.08-19.902-160.098 0-84.936 20.983-183.787 33.691-230.538h150.737c12.708 46.747 33.693 145.594 33.693 230.538.001 91.218-14.52 140.909-19.987 159.616z"/><path d="m307.753 52.234h-103.506c-5.523 0-10 4.477-10 10s4.477 10 10 10h103.507c5.523 0 10-4.477 10-10-.001-5.523-4.478-10-10.001-10z"/></g></g></svg>