<svg id="Capa_1" enable-background="new 0 0 511.966 511.966" height="512" viewBox="0 0 511.966 511.966" width="512" xmlns="http://www.w3.org/2000/svg"><g><g><path d="m286.904 290.305 11.798 5.729 99.784-204.402c16.614-34.036 2.42-75.06-31.705-91.632l-110.798 226.965 19.07 39.063z" fill="#b2f0fb"/><g><path d="m145.184 0 129.868 266.028-61.788 30.005-99.783-204.402c-16.615-34.035-2.421-75.059 31.703-91.631z" fill="#b2f0fb"/></g></g><g fill="#020288"><path d="m214.556 361.831-52.138-25.319c-33.698-16.365-74.466-2.328-90.877 31.29-7.936 16.256-9.05 34.646-3.136 51.781 5.925 17.171 18.18 30.993 34.507 38.921 9.551 4.639 19.67 6.835 29.642 6.835 25.209-.001 49.476-14.036 61.235-38.125l25.385-52.001c1.165-2.387 1.333-5.139.467-7.648-.866-2.511-2.696-4.574-5.085-5.734zm-38.739 56.609c-11.583 23.727-40.366 33.631-64.168 22.073-11.515-5.592-20.157-15.342-24.338-27.454-4.168-12.079-3.386-25.036 2.203-36.484 8.299-16.999 25.426-26.902 43.224-26.902 7.045 0 14.195 1.552 20.944 4.829l43.124 20.942z"/><path d="m482.46 347.389c-27.697-56.736-96.505-80.426-153.381-52.803l-23.408 11.368-21.633-44.313c-2.419-4.957-8.397-7.019-13.354-4.608l-61.788 30.005c-2.389 1.16-4.219 3.223-5.085 5.733s-.698 5.262.467 7.648l2.359 4.833-.343.702-23.408-11.368c-56.877-27.622-125.684-3.933-153.381 52.803-13.407 27.464-15.302 58.495-5.334 87.379 9.988 28.944 30.684 52.264 58.273 65.662 16.125 7.831 33.2 11.536 50.035 11.536 42.544 0 83.5-23.688 103.345-64.339l20.158-41.293 20.158 41.293c19.846 40.654 60.797 64.339 103.345 64.339 16.831 0 33.914-3.707 50.035-11.536 27.59-13.398 48.285-36.718 58.273-65.662 9.969-28.884 8.075-59.915-5.333-87.379zm-237.605 36.151-27.003 55.313c-22.87 46.845-79.694 66.398-126.671 43.586-22.777-11.062-39.86-30.309-48.104-54.196-8.223-23.826-6.659-49.425 4.4-72.081 16.386-33.564 50.198-53.116 85.336-53.116 13.903 0 28.018 3.063 41.336 9.53l32.385 15.728c3.628 1.764 7.805 1.133 10.731-1.278zm224.033 44.703c-8.243 23.888-25.326 43.135-48.104 54.196-46.978 22.81-103.803 3.26-126.671-43.586l-67.362-137.988-.004-.008-.1-.206 43.797-21.269 21.633 44.313c2.42 4.957 8.396 7.019 13.354 4.608l32.385-15.728c46.977-22.814 103.802-3.261 126.672 43.586 11.059 22.657 12.623 48.256 4.4 72.082z"/><path d="m349.547 336.512-52.138 25.319c-2.389 1.16-4.219 3.223-5.085 5.733s-.698 5.262.467 7.648l25.385 52.001c11.762 24.092 36.024 38.125 61.235 38.125 9.97 0 20.093-2.197 29.642-6.835 16.327-7.928 28.582-21.75 34.507-38.921 5.914-17.136 4.8-35.525-3.136-51.781-16.412-33.617-57.177-47.654-90.877-31.289zm75.108 76.548c-4.181 12.112-12.823 21.862-24.338 27.454-6.75 3.277-13.897 4.829-20.943 4.829-17.797-.002-34.926-9.904-43.225-26.902l-20.989-42.996 43.124-20.942c23.8-11.556 52.585-1.654 64.168 22.073 5.588 11.447 6.371 24.404 2.203 36.484z"/></g></g></svg>