<svg id="Capa_1" enable-background="new 0 0 512 512" height="512" viewBox="0 0 512 512" width="512" xmlns="http://www.w3.org/2000/svg"><g><g><g><path d="m502 256c0 35.665-28.974 64.578-64.716 64.578h-394.926c-17.871 0-32.358-14.456-32.358-32.289 0-17.833 14.487-32.289 32.358-32.289h384.492" fill="#a4fcc4"/></g><g><path d="m42.358 256c-17.871 0-32.358-14.456-32.358-32.289 0-17.833 14.487-32.289 32.358-32.289h394.927c35.741 0 64.715 28.913 64.715 64.578" fill="#a4fcc4"/></g></g><g fill="#020288"><path d="m512 362.266c0-23.318-19.001-42.289-42.357-42.289h-394.927c-41.198 0-74.716 33.456-74.716 74.578s33.518 74.577 74.716 74.577h394.927c23.356 0 42.357-18.971 42.357-42.289 0-12.931-5.844-24.525-15.033-32.288 9.189-7.764 15.033-19.358 15.033-32.289zm-426.851 22.289c-5.522 0-10 4.478-10 10s4.478 10 10 10h384.493c12.328 0 22.357 9.998 22.357 22.288s-10.029 22.289-22.357 22.289h-394.926c-30.17 0-54.716-24.483-54.716-54.577 0-30.095 24.546-54.578 54.716-54.578h394.927c12.328 0 22.357 9.999 22.357 22.289s-10.029 22.289-22.357 22.289z"/><path d="m496.967 117.445c9.189-7.763 15.033-19.357 15.033-32.288 0-23.318-19.001-42.289-42.357-42.289h-394.927c-41.198 0-74.716 33.455-74.716 74.577s33.518 74.578 74.716 74.578h394.927c23.356 0 42.357-18.971 42.357-42.289 0-12.931-5.844-24.525-15.033-32.289zm-27.324 54.578h-394.927c-30.17 0-54.716-24.483-54.716-54.578 0-30.094 24.546-54.577 54.716-54.577h394.927c12.328 0 22.357 9.999 22.357 22.289s-10.029 22.288-22.357 22.288h-384.494c-5.522 0-10 4.478-10 10s4.478 10 10 10h384.493c12.328 0 22.357 9.999 22.357 22.289s-10.028 22.289-22.356 22.289z"/><path d="m426.858 266c5.522 0 10-4.478 10-10s-4.478-10-10-10h-328.24c-5.522 0-10 4.478-10 10s4.478 10 10 10z"/></g></g></svg>